<svg width="24" height="13" viewBox="0 0 24 13" fill="none" xmlns="http://www.w3.org/2000/svg">
<g id="Arrow button">
<path id="rightArrow" d="M23.7251 5.7579C23.7249 5.75758 23.7246 5.75722 23.7243 5.7569L18.8257 0.305287C18.4587 -0.103112 17.8651 -0.101593 17.4998 0.308851C17.1346 0.719243 17.136 1.38303 17.503 1.79148L20.7919 5.45161H0.937622C0.419841 5.45161 0.00012207 5.92098 0.00012207 6.5C0.00012207 7.07902 0.419841 7.54839 0.937622 7.54839H20.7918L17.503 11.2085C17.136 11.617 17.1346 12.2808 17.4999 12.6911C17.8652 13.1016 18.4588 13.1031 18.8257 12.6947L23.7243 7.2431C23.7246 7.24278 23.7249 7.24242 23.7252 7.2421C24.0924 6.83229 24.0912 6.16635 23.7251 5.7579Z" fill="white"/>
</g>
</svg>
