<svg width="26" height="34" viewBox="0 0 26 34" fill="none" xmlns="http://www.w3.org/2000/svg">
<g id="q">
<path id="Vector" d="M13 0.75016C5.63331 0.75016 0.083313 3.43349 0.083313 7.00016V26.1668C0.083313 30.1335 5.74998 33.2502 13 33.2502C20.25 33.2502 25.9166 30.1335 25.9166 26.1668V7.00016C25.9166 3.43349 20.3666 0.75016 13 0.75016ZM23.4166 19.5002C23.4166 21.6668 19.1333 24.0835 13 24.0835C6.86665 24.0835 2.58331 21.6668 2.58331 19.5002V17.0502C4.91665 18.8002 8.66665 19.9168 13 19.9168C17.3333 19.9168 21.0833 18.8002 23.4166 17.0502V19.5002ZM23.4166 12.8335C23.4166 15.0002 19.1333 17.4168 13 17.4168C6.86665 17.4168 2.58331 15.0002 2.58331 12.8335V10.7835C4.89998 12.3002 8.61665 13.2502 13 13.2502C17.3833 13.2502 21.1 12.3002 23.4166 10.7835V12.8335ZM13 3.25016C19.3666 3.25016 23.4166 5.46683 23.4166 7.00016C23.4166 8.53349 19.3666 10.7502 13 10.7502C6.63331 10.7502 2.58331 8.53349 2.58331 7.00016C2.58331 5.46683 6.63331 3.25016 13 3.25016ZM13 30.7502C6.86665 30.7502 2.58331 28.3335 2.58331 26.1668V23.7168C4.91665 25.4668 8.66665 26.5835 13 26.5835C17.3333 26.5835 21.0833 25.4668 23.4166 23.7168V26.1668C23.4166 28.3335 19.1333 30.7502 13 30.7502Z" fill="#002E6B"/>
</g>
</svg>
