<svg width="34" height="27" viewBox="0 0 34 27" fill="none" xmlns="http://www.w3.org/2000/svg">
<g id="b">
<path id="Vector" d="M28.6666 6.08342H27.3333L18.1666 0.850085C16.3833 -0.166582 14.1166 0.133418 12.65 1.58342L8.14997 6.08342H6.99997C4.46664 6.08342 2.41664 8.13342 2.41664 10.6668V12.7501H1.99997C1.31664 12.7501 0.749969 13.3168 0.749969 14.0001V19.0001C0.749969 19.6834 1.31664 20.2501 1.99997 20.2501H2.41664V22.3334C2.41664 24.8668 4.46664 26.9168 6.99997 26.9168H28.6666C31.2 26.9168 33.25 24.8668 33.25 22.3334V10.6668C33.25 8.13342 31.2 6.08342 28.6666 6.08342ZM14.4166 3.35008C15.0833 2.68342 16.1166 2.55008 16.9166 3.01675L22.2833 6.08342H11.6666L14.4 3.35008H14.4166ZM3.24997 17.7501V15.2501H7.41664V17.7501H3.24997ZM30.75 22.3334C30.75 23.4834 29.8166 24.4168 28.6666 24.4168H6.99997C5.84997 24.4168 4.91664 23.4834 4.91664 22.3334V20.2501H7.8333C8.9833 20.2501 9.91664 19.3168 9.91664 18.1668V14.8334C9.91664 13.6834 8.9833 12.7501 7.8333 12.7501H4.91664V10.6668C4.91664 9.51675 5.84997 8.58342 6.99997 8.58342H28.6666C29.8166 8.58342 30.75 9.51675 30.75 10.6668V22.3334Z" fill="#002E6B"/>
</g>
</svg>
