<svg width="40" height="40" viewBox="0 0 40 40" fill="none" xmlns="http://www.w3.org/2000/svg">
<g id="Soort=emergency">
<path id="Vector" d="M35.3333 27.2664L23.9333 7.49975C22.6667 5.31641 19.8667 4.54975 17.6667 5.81641C16.8 6.31641 16.15 7.06641 15.7667 7.96641L4.38333 27.6997C3.76666 28.7664 3.61666 29.9997 3.91666 31.1831C4.23333 32.3664 4.99999 33.3497 6.04999 33.9664C6.76666 34.3831 7.54999 34.5831 8.33333 34.5831H31.6667C34.2 34.5831 36.25 32.5331 36.25 29.9997C36.25 28.9664 35.9 28.0331 35.3333 27.2664ZM21.75 8.74975L31.3667 25.4164H26.55L18.1333 10.8331C17.85 10.3497 17.7833 9.78308 17.9333 9.24975C17.9667 9.13308 18.05 9.03308 18.1 8.91641L18.2 8.73308C18.2 8.73308 18.2167 8.66641 18.2333 8.63308C18.4167 8.36641 18.6333 8.13308 18.9167 7.96641C19.9167 7.38308 21.1833 7.73308 21.7667 8.73308L21.75 8.74975ZM23.6667 25.4164H16.2667L19.9667 18.9997L23.6667 25.4164ZM6.31666 30.5331C6.16666 29.9997 6.24999 29.4331 6.51666 28.9497L16.1167 12.3331L18.5167 16.4997L10.1167 31.0331C9.55 32.0331 8.26666 32.3664 7.26666 31.7997C6.78333 31.5164 6.43333 31.0664 6.29999 30.5331H6.31666ZM31.6667 32.0831H12.4167L14.8167 27.9164H31.65C32.8 27.9164 33.7333 28.8497 33.7333 29.9997C33.7333 31.1497 32.8 32.0831 31.65 32.0831H31.6667Z" fill="#002E6B"/>
</g>
</svg>
