<svg width="40" height="40" viewBox="0 0 40 40" fill="none" xmlns="http://www.w3.org/2000/svg">
<g id="Soort=steering wheel">
<path id="Vector" d="M20 3.75016C11.0333 3.75016 3.75 11.0335 3.75 20.0002C3.75 28.9668 11.0333 36.2502 20 36.2502C28.9667 36.2502 36.25 28.9668 36.25 20.0002C36.25 11.0335 28.9667 3.75016 20 3.75016ZM20 33.7502C12.4167 33.7502 6.25 27.5835 6.25 20.0002C6.25 12.4168 12.4167 6.25016 20 6.25016C27.5833 6.25016 33.75 12.4168 33.75 20.0002C33.75 27.5835 27.5833 33.7502 20 33.7502Z" fill="#002E6B"/>
<path id="Vector_2" d="M29.7667 22.6003C29.7667 22.6003 29.7667 22.6003 29.75 22.6003C29.7333 22.6003 29.75 22.6003 29.7333 22.6003C27.0333 21.2503 23.7667 22.0003 22.2833 24.3503C21.2333 26.0003 21.25 28.1836 22.3167 30.0503C22.3167 30.0669 22.35 30.0669 22.35 30.0836C22.45 30.2503 22.5833 30.3836 22.75 30.4836C22.7833 30.5003 22.8 30.5169 22.8333 30.5336C23 30.6169 23.2 30.6836 23.4 30.6836C23.5333 30.6836 23.6833 30.6669 23.8167 30.6169C26.8167 29.5336 29.2333 27.2169 30.4333 24.2336C30.6833 23.6003 30.3833 22.8836 29.7667 22.6169V22.6003ZM24.1 27.6836C23.9667 26.9503 24.0333 26.2336 24.4 25.6669C25 24.7169 26.25 24.2669 27.5 24.4503C26.6833 25.8169 25.5167 26.9336 24.1 27.6836Z" fill="#002E6B"/>
<path id="Vector_3" d="M31.05 18.6168C31.05 18.6168 31.0667 18.4502 31.0834 18.3668C31.0834 18.2835 31.1 18.2002 31.0834 18.1168C31.0834 18.1002 31.0834 18.0835 31.0834 18.0668C30.15 12.6668 25.4834 8.75016 20 8.75016C14.5167 8.75016 9.85002 12.6668 8.91669 18.0668C8.91669 18.0835 8.91669 18.1002 8.91669 18.1168C8.91669 18.2002 8.91669 18.2835 8.91669 18.3668C8.91669 18.4502 8.91669 18.5335 8.95002 18.6168C8.95002 18.6335 8.95002 18.6502 8.95002 18.6668C8.96669 18.7168 9.01669 18.7668 9.03335 18.8168C9.06669 18.9002 9.10002 18.9668 9.16669 19.0335C9.21669 19.1002 9.28335 19.1502 9.33335 19.2002C9.40002 19.2502 9.45002 19.3002 9.51669 19.3335C9.60002 19.3835 9.68335 19.4002 9.76669 19.4335C9.81669 19.4335 9.86669 19.4835 9.91669 19.4835C9.93335 19.4835 9.95002 19.4835 9.96669 19.4835C10.05 19.4835 10.1334 19.4835 10.2167 19.4835C10.3 19.4835 10.3834 19.4835 10.4667 19.4502C10.4834 19.4502 10.5 19.4502 10.5167 19.4502C16.6167 17.3835 23.3167 17.3835 29.4167 19.4502C29.55 19.5002 29.6667 19.5168 29.8 19.5168C29.8 19.5168 29.8 19.5168 29.8167 19.5168C29.8834 19.5168 29.95 19.5168 30.0334 19.5002C30.05 19.5002 30.0667 19.4835 30.1 19.4835C30.2167 19.4502 30.3167 19.4168 30.4167 19.3668C30.45 19.3502 30.4834 19.3335 30.5167 19.3168C30.6334 19.2335 30.75 19.1335 30.8334 19.0168C30.85 18.9835 30.8667 18.9502 30.8834 18.9168C30.9334 18.8335 30.9834 18.7668 31.0167 18.6835C31.0167 18.6668 31.0167 18.6502 31.0167 18.6335L31.05 18.6168ZM12.05 16.4168C13.4334 13.3335 16.4834 11.2335 20.0167 11.2335C23.55 11.2335 26.6 13.3335 27.9834 16.4168C22.7834 15.0835 17.2667 15.0835 12.0667 16.4168H12.05Z" fill="#002E6B"/>
<path id="Vector_4" d="M10.1167 22.5669C9.56669 22.8669 9.33336 23.5169 9.55003 24.1002C9.55003 24.1336 9.55003 24.1836 9.56669 24.2169C10.7167 27.0669 13.0334 29.3503 15.9 30.4836C15.9 30.4836 15.9334 30.4836 15.95 30.4836C16.0834 30.5336 16.2167 30.5669 16.3667 30.5669C16.55 30.5669 16.7334 30.5169 16.9 30.4336C16.9334 30.4336 16.9667 30.4002 17 30.3836C17.15 30.3002 17.2834 30.1669 17.4 30.0169C17.4 30.0169 17.4334 30.0002 17.4334 29.9836C18.6 28.1836 18.7334 26.0336 17.7834 24.3669C16.3667 21.8836 12.9334 21.0836 10.15 22.5502L10.1167 22.5669ZM12.4667 24.3836C13.8167 24.1669 15.0667 24.7169 15.5834 25.6169C15.9 26.1669 15.9334 26.8836 15.75 27.6002C14.4 26.8336 13.2667 25.7336 12.4834 24.3836H12.4667Z" fill="#002E6B"/>
</g>
</svg>
