<svg width="40" height="40" viewBox="0 0 40 40" fill="none" xmlns="http://www.w3.org/2000/svg">
<g id="Soort=car insuranced">
<path id="Vector" d="M36.25 20.8331C36.25 18.7664 34.5667 17.0831 32.5 17.0831H30.5167L29.9167 15.5831C29.4667 14.4664 28.4 13.7497 27.2167 13.7497H26.5667C26.8 11.9664 26.4667 10.4664 26.2 9.61641C26.0667 9.21641 25.75 8.89974 25.35 8.79974C24.2834 8.49974 23.3167 8.01641 22.45 7.34974C21.9167 6.93307 21.4334 6.44974 21 5.89974C20.5334 5.28307 19.5 5.28307 19.0334 5.89974C18.6167 6.44974 18.1167 6.93307 17.5834 7.34974C16.7334 8.01641 15.75 8.49974 14.6834 8.79974C14.2834 8.91641 13.95 9.21641 13.8334 9.61641C13.5667 10.4664 13.2167 11.9664 13.4667 13.7497H12.8167C11.6167 13.7497 10.55 14.4664 10.1167 15.5831L9.51669 17.0831H7.53336C5.46669 17.0831 3.78336 18.7664 3.78336 20.8331C3.78336 22.7664 5.25002 24.3331 7.11669 24.5331V32.4997C7.11669 34.5664 8.80002 36.2497 10.8667 36.2497C12.9334 36.2497 14.6167 34.5664 14.6167 32.4997V31.2497H25.45V32.4997C25.45 34.5664 27.1334 36.2497 29.2 36.2497C31.2667 36.2497 32.95 34.5664 32.95 32.4997V24.5331C34.8167 24.3164 36.2834 22.7497 36.2834 20.8331H36.25ZM30.4167 28.7497H9.58336V24.5831H30.4167V28.7497ZM16.0167 10.9831C17.1334 10.5997 18.1667 10.0331 19.1 9.31641C19.4167 9.06641 19.7167 8.81641 20 8.53307C20.2834 8.81641 20.5834 9.06641 20.9 9.31641C21.8334 10.0331 22.8667 10.5997 23.9834 10.9831C24.1834 11.8664 24.3 13.1831 23.8167 14.5997C23 17.0164 20.9667 18.1997 20 18.6497C19.0334 18.1997 17 17.0164 16.1834 14.5997C15.7 13.1831 15.8167 11.8664 16.0167 10.9831ZM12.7834 16.2497H14.1834C15.7334 19.5831 18.9 20.9331 19.5667 21.1664C19.7 21.2164 19.85 21.2497 20 21.2497C20.15 21.2497 20.2834 21.2164 20.4334 21.1664C21.1 20.9164 24.2667 19.5664 25.8167 16.2497H27.2C27.3667 16.2497 27.5167 16.3497 27.5834 16.5164L29.8167 22.0831H10.1834L12.4167 16.5164C12.4834 16.3497 12.6334 16.2497 12.8 16.2497H12.7834ZM6.23336 20.8331C6.23336 20.1497 6.80002 19.5831 7.48336 19.5831H8.46669L7.46669 22.0831C6.78336 22.0831 6.23336 21.5164 6.23336 20.8331ZM12.0667 32.4997C12.0667 33.1831 11.5 33.7497 10.8167 33.7497C10.1334 33.7497 9.56669 33.1831 9.56669 32.4997V31.2497H12.0667V32.4997ZM29.15 33.7497C28.4667 33.7497 27.9 33.1831 27.9 32.4997V31.2497H30.4V32.4997C30.4 33.1831 29.8334 33.7497 29.15 33.7497ZM32.5 22.0831L31.5 19.5831H32.4834C33.1667 19.5831 33.7334 20.1497 33.7334 20.8331C33.7334 21.5164 33.1834 22.0664 32.5 22.0831Z" fill="#002E6B"/>
<path id="Vector_2" d="M13.3333 27.9165H15C15.6833 27.9165 16.25 27.3498 16.25 26.6665C16.25 25.9832 15.6833 25.4165 15 25.4165H13.3333C12.65 25.4165 12.0833 25.9832 12.0833 26.6665C12.0833 27.3498 12.65 27.9165 13.3333 27.9165Z" fill="#002E6B"/>
<path id="Vector_3" d="M25 27.9165H26.6667C27.35 27.9165 27.9167 27.3498 27.9167 26.6665C27.9167 25.9832 27.35 25.4165 26.6667 25.4165H25C24.3167 25.4165 23.75 25.9832 23.75 26.6665C23.75 27.3498 24.3167 27.9165 25 27.9165Z" fill="#002E6B"/>
<path id="Vector_4" d="M18.3666 15.8834C18.6166 16.1334 18.9333 16.2501 19.25 16.2501C19.5666 16.2501 19.8833 16.1334 20.1333 15.8834L22.5666 13.4501C23.05 12.9667 23.05 12.1667 22.5666 11.6834C22.0833 11.2001 21.2833 11.2001 20.8 11.6834L19.25 13.2334L19.2166 13.2001C18.7333 12.7167 17.9333 12.7167 17.45 13.2001C16.9666 13.6834 16.9666 14.4834 17.45 14.9667L18.3666 15.8834Z" fill="#002E6B"/>
</g>
</svg>
